# xmcd
#
# Track frame offsets: 
#        150
#        12694
#        23274
#        38507
#        46592
#        66597
#        81744
#        92171
#        111291
#        124213
#
# Disc length: 1841 seconds
#
# Revision: 1
# Processed by: cddbd v1.5.2PL0 Copyright (c) Steve Scherf et al.
# Submitted via: ExactAudioCopy v0.99pb5
#
DISCID=80072f0a
DTITLE=Various Artist - Pure Jazz Moods - CD2
DYEAR=2005
DGENRE=Jazz
TTITLE0=Duke Ellington and his Orchestra/It don't mean a thing (if it ai
TTITLE0=n't got that swing)
TTITLE1=Ella Fitzgerald/Let's face the music and dance
TTITLE2=Peggy Lee/Fever
TTITLE3=Billie Holiday/I hear music
TTITLE4=Sade Adù/Smooth operator
TTITLE5=Simply Red/If you don't know me by now
TTITLE6=Tony Bennett/The Good Life
TTITLE7=Al Jarreau/After all
TTITLE8=Booker T.& the MG's/Green Onions
TTITLE9=Dean Martin/That's Amore
EXTD=YEAR: 2005
EXTT0=
EXTT1=
EXTT2=
EXTT3=
EXTT4=
EXTT5=
EXTT6=
EXTT7=
EXTT8=
EXTT9=
PLAYORDER=
